<svg width="110" height="21" viewBox="0 0 110 21" fill="none" xmlns="http://www.w3.org/2000/svg">
<g opacity="0.5">
<g opacity="0.8" clip-path="url(#clip0_3447_26894)">
<path d="M10.0325 8.51531H8.32566V6.79974C8.32566 6.40651 8.0106 6.08984 7.61938 6.08984C7.22816 6.08984 6.91311 6.40651 6.91311 6.79974V8.51531H5.20627C4.81505 8.51531 4.5 8.83198 4.5 9.2252C4.5 9.61843 4.81505 9.93509 5.20627 9.93509H6.91311V11.6507C6.91311 12.0439 7.22816 12.3606 7.61938 12.3606C8.0106 12.3606 8.32566 12.0439 8.32566 11.6507V9.93509H10.0325C10.4237 9.93509 10.7388 9.61843 10.7388 9.2252C10.7388 8.83198 10.4202 8.51531 10.0325 8.51531Z" fill="#333333"/>
<path d="M7.62364 15.0748C4.40732 15.0748 1.80033 12.458 1.80033 9.22519C1.80033 5.99239 4.40732 3.37554 7.62364 3.37554C10.84 3.37554 13.4435 5.99587 13.4435 9.22519C13.4435 12.4545 10.8365 15.0748 7.62364 15.0748ZM17.1376 17.7891L13.215 13.8464C14.2432 12.5902 14.863 10.979 14.863 9.22519C14.863 5.20595 11.6224 1.94531 7.62018 1.94531C3.61795 1.94531 0.380859 5.20595 0.380859 9.22519C0.380859 13.2444 3.62141 16.5051 7.62364 16.5051C9.36855 16.5051 10.9681 15.8856 12.2179 14.8521L16.1405 18.7948C16.3205 18.9792 16.871 19.0697 17.141 18.7948C17.4145 18.5164 17.4145 18.0675 17.1376 17.7891Z" fill="#333333"/>
</g>
<path opacity="0.8" d="M26.4261 14V5.12786H27.6002V8.77113H32.2118V5.12786H33.3858V14H32.2118V9.81811H27.6002V14H26.4261ZM34.802 10.7864C34.802 9.59621 35.1328 8.71464 35.7945 8.14173C36.3473 7.66564 37.021 7.4276 37.8159 7.4276C38.6994 7.4276 39.4216 7.71809 39.9824 8.29908C40.5433 8.87603 40.8237 9.67488 40.8237 10.6956C40.8237 11.5227 40.6986 12.1743 40.4484 12.6504C40.2023 13.1225 39.8412 13.4896 39.3652 13.7519C38.8931 14.0141 38.3767 14.1452 37.8159 14.1452C36.9161 14.1452 36.1879 13.8568 35.6311 13.2798C35.0784 12.7029 34.802 11.8717 34.802 10.7864ZM35.9216 10.7864C35.9216 11.6095 36.1011 12.2268 36.4602 12.6383C36.8193 13.0458 37.2712 13.2496 37.8159 13.2496C38.3565 13.2496 38.8064 13.0438 39.1654 12.6323C39.5245 12.2207 39.7041 11.5933 39.7041 10.7501C39.7041 9.95529 39.5225 9.35413 39.1594 8.94663C38.8003 8.5351 38.3525 8.32934 37.8159 8.32934C37.2712 8.32934 36.8193 8.53308 36.4602 8.94058C36.1011 9.34808 35.9216 9.96336 35.9216 10.7864ZM43.892 14L41.447 7.57284H42.5969L43.9767 11.4219C44.126 11.8374 44.2632 12.2691 44.3883 12.717C44.4851 12.3781 44.6202 11.9706 44.7937 11.4945L46.222 7.57284H47.3416L44.9087 14H43.892ZM52.7036 11.9302L53.8293 12.0694C53.6518 12.7271 53.3229 13.2375 52.8428 13.6006C52.3627 13.9637 51.7494 14.1452 51.003 14.1452C50.063 14.1452 49.3166 13.8568 48.7638 13.2798C48.2151 12.6988 47.9407 11.8859 47.9407 10.8409C47.9407 9.75961 48.2191 8.92041 48.7759 8.32328C49.3327 7.72616 50.0549 7.4276 50.9425 7.4276C51.8019 7.4276 52.5039 7.72011 53.0486 8.30513C53.5933 8.89015 53.8656 9.71321 53.8656 10.7743C53.8656 10.8389 53.8636 10.9357 53.8595 11.0648H49.0664C49.1068 11.7709 49.3065 12.3115 49.6655 12.6867C50.0246 13.0619 50.4725 13.2496 51.0091 13.2496C51.4085 13.2496 51.7494 13.1447 52.0319 12.9349C52.3143 12.7251 52.5382 12.3902 52.7036 11.9302ZM49.1269 10.1691H52.7157C52.6673 9.62848 52.5301 9.223 52.3042 8.95268C51.9572 8.53308 51.5074 8.32328 50.9546 8.32328C50.4543 8.32328 50.0327 8.49072 49.6898 8.82559C49.3508 9.16047 49.1632 9.60831 49.1269 10.1691ZM55.191 14V7.57284H56.1714V8.54721C56.4215 8.09129 56.6515 7.79071 56.8613 7.64547C57.0751 7.50022 57.3091 7.4276 57.5633 7.4276C57.9305 7.4276 58.3037 7.5446 58.6829 7.77861L58.3077 8.78928C58.0414 8.63193 57.7751 8.55326 57.5089 8.55326C57.2708 8.55326 57.057 8.62588 56.8674 8.77113C56.6777 8.91234 56.5426 9.11004 56.4619 9.36422C56.3408 9.75154 56.2803 10.1752 56.2803 10.6351V14H55.191ZM65.1585 13.0256L65.3159 13.9879C65.0092 14.0525 64.7349 14.0847 64.4928 14.0847C64.0974 14.0847 63.7908 14.0222 63.5729 13.8971C63.355 13.772 63.2017 13.6086 63.1129 13.4069C63.0242 13.2011 62.9798 12.7715 62.9798 12.1178V8.42011H62.181V7.57284H62.9798V5.98118L64.0631 5.32757V7.57284H65.1585V8.42011H64.0631V12.1784C64.0631 12.489 64.0813 12.6887 64.1176 12.7775C64.1579 12.8663 64.2205 12.9369 64.3052 12.9893C64.3939 13.0418 64.519 13.068 64.6804 13.068C64.8014 13.068 64.9608 13.0539 65.1585 13.0256ZM65.8242 10.7864C65.8242 9.59621 66.1551 8.71464 66.8167 8.14173C67.3695 7.66564 68.0433 7.4276 68.8381 7.4276C69.7217 7.4276 70.4439 7.71809 71.0047 8.29908C71.5655 8.87603 71.8459 9.67488 71.8459 10.6956C71.8459 11.5227 71.7208 12.1743 71.4707 12.6504C71.2246 13.1225 70.8635 13.4896 70.3874 13.7519C69.9153 14.0141 69.3989 14.1452 68.8381 14.1452C67.9384 14.1452 67.2101 13.8568 66.6533 13.2798C66.1006 12.7029 65.8242 11.8717 65.8242 10.7864ZM66.9438 10.7864C66.9438 11.6095 67.1234 12.2268 67.4824 12.6383C67.8415 13.0458 68.2934 13.2496 68.8381 13.2496C69.3787 13.2496 69.8286 13.0438 70.1877 12.6323C70.5467 12.2207 70.7263 11.5933 70.7263 10.7501C70.7263 9.95529 70.5447 9.35413 70.1816 8.94663C69.8225 8.5351 69.3747 8.32934 68.8381 8.32934C68.2934 8.32934 67.8415 8.53308 67.4824 8.94058C67.1234 9.34808 66.9438 9.96336 66.9438 10.7864ZM76.0036 14V13.1164L80.0947 8.42011C79.6307 8.44432 79.2212 8.45643 78.8661 8.45643H76.2457V7.57284H81.4987V8.29302L78.0189 12.372L77.3471 13.1164C77.8353 13.0801 78.2932 13.0619 78.7209 13.0619H81.6924V14H76.0036ZM82.3702 10.7864C82.3702 9.59621 82.7011 8.71464 83.3627 8.14173C83.9155 7.66564 84.5893 7.4276 85.3841 7.4276C86.2677 7.4276 86.9899 7.71809 87.5507 8.29908C88.1115 8.87603 88.3919 9.67488 88.3919 10.6956C88.3919 11.5227 88.2668 12.1743 88.0167 12.6504C87.7706 13.1225 87.4095 13.4896 86.9334 13.7519C86.4613 14.0141 85.9449 14.1452 85.3841 14.1452C84.4844 14.1452 83.7561 13.8568 83.1993 13.2798C82.6466 12.7029 82.3702 11.8717 82.3702 10.7864ZM83.4898 10.7864C83.4898 11.6095 83.6694 12.2268 84.0284 12.6383C84.3875 13.0458 84.8394 13.2496 85.3841 13.2496C85.9247 13.2496 86.3746 13.0438 86.7337 12.6323C87.0927 12.2207 87.2723 11.5933 87.2723 10.7501C87.2723 9.95529 87.0907 9.35413 86.7276 8.94663C86.3685 8.5351 85.9207 8.32934 85.3841 8.32934C84.8394 8.32934 84.3875 8.53308 84.0284 8.94058C83.6694 9.34808 83.4898 9.96336 83.4898 10.7864ZM89.2694 10.7864C89.2694 9.59621 89.6003 8.71464 90.2619 8.14173C90.8147 7.66564 91.4885 7.4276 92.2833 7.4276C93.1669 7.4276 93.8891 7.71809 94.4499 8.29908C95.0107 8.87603 95.2911 9.67488 95.2911 10.6956C95.2911 11.5227 95.166 12.1743 94.9159 12.6504C94.6698 13.1225 94.3087 13.4896 93.8326 13.7519C93.3605 14.0141 92.8441 14.1452 92.2833 14.1452C91.3836 14.1452 90.6553 13.8568 90.0985 13.2798C89.5458 12.7029 89.2694 11.8717 89.2694 10.7864ZM90.389 10.7864C90.389 11.6095 90.5686 12.2268 90.9276 12.6383C91.2867 13.0458 91.7386 13.2496 92.2833 13.2496C92.8239 13.2496 93.2738 13.0438 93.6329 12.6323C93.9919 12.2207 94.1715 11.5933 94.1715 10.7501C94.1715 9.95529 93.9899 9.35413 93.6268 8.94663C93.2677 8.5351 92.8199 8.32934 92.2833 8.32934C91.7386 8.32934 91.2867 8.53308 90.9276 8.94058C90.5686 9.34808 90.389 9.96336 90.389 10.7864ZM96.5741 14V7.57284H97.5485V8.47458C97.7502 8.15988 98.0185 7.90772 98.3534 7.71809C98.6882 7.52443 99.0695 7.4276 99.4972 7.4276C99.9733 7.4276 100.363 7.52645 100.665 7.72414C100.972 7.92184 101.188 8.19821 101.313 8.55326C101.821 7.80282 102.483 7.4276 103.298 7.4276C103.935 7.4276 104.425 7.60512 104.768 7.96017C105.111 8.31118 105.283 8.85384 105.283 9.58814V14H104.2V9.95125C104.2 9.51551 104.163 9.20283 104.091 9.0132C104.022 8.81954 103.895 8.66421 103.709 8.54721C103.524 8.4302 103.306 8.3717 103.056 8.3717C102.604 8.3717 102.229 8.523 101.93 8.82559C101.632 9.12416 101.482 9.60428 101.482 10.266V14H100.393V9.82416C100.393 9.34001 100.304 8.97689 100.127 8.73482C99.9491 8.49274 99.6586 8.3717 99.2551 8.3717C98.9485 8.3717 98.664 8.45239 98.4018 8.61378C98.1436 8.77516 97.956 9.01119 97.839 9.32185C97.722 9.63252 97.6635 10.0804 97.6635 10.6654V14H96.5741Z" fill="#333333"/>
</g>
<defs>
<clipPath id="clip0_3447_26894">
<rect width="17.7261" height="17.8169" fill="white" transform="translate(0 1.54688)"/>
</clipPath>
</defs>
</svg>
